<?xml version="1.0" encoding="utf-8"?>
<!-- Generator: Adobe Illustrator 16.0.4, SVG Export Plug-In . SVG Version: 6.00 Build 0)  -->
<!DOCTYPE svg PUBLIC "-//W3C//DTD SVG 1.1//EN" "http://www.w3.org/Graphics/SVG/1.1/DTD/svg11.dtd">
<svg version="1.1" id="Layer_1" xmlns:sketch="http://www.bohemiancoding.com/sketch/ns"
	 xmlns="http://www.w3.org/2000/svg" xmlns:xlink="http://www.w3.org/1999/xlink" x="0px" y="0px" width="32px" height="64px"
	 viewBox="0 0 32 64" enable-background="new 0 0 32 64" xml:space="preserve">
<title>icon-1</title>
<desc>Created with Sketch.</desc>
<path id="Shape_1_" fill="#FFFFFF" d="M16,64C7.2,64,0,56.8,0,48s7.2-16,16-16s16,7.2,16,16S24.8,64,16,64L16,64z M16,34
	C8.3,34,2,40.3,2,48s6.3,14,14,14s14-6.3,14-14S23.7,34,16,34L16,34z M27,49c-0.6,0-1-0.4-1-1c0-5.5-4.5-10-10-10S6,42.5,6,48
	c0,0.6-0.4,1-1,1s-1-0.4-1-1c0-6.6,5.4-12,12-12c6.6,0,12,5.4,12,12C28,48.6,27.6,49,27,49L27,49z M15.7,54l2.7-12
	c0.1-0.5,0.699-0.9,1.199-0.7c0.5,0.101,0.9,0.7,0.801,1.2L17.6,54.6C18.4,55,19,55.9,19,57c0,1.7-1.3,3-3,3s-3-1.3-3-3
	C13,55.5,14.2,54.2,15.7,54L15.7,54z M16,58c0.6,0,1-0.4,1-1s-0.4-1-1-1c-0.6,0-1,0.4-1,1S15.4,58,16,58L16,58z"/>
<g>
	<g>
		<path fill="#313144" d="M27.006,23.906H4.994C2.24,23.906,0,21.715,0,19.022V6.875c0-2.693,2.24-4.884,4.994-4.884h22.012
			C29.76,1.991,32,4.182,32,6.875v12.147C32,21.715,29.76,23.906,27.006,23.906z M4.994,3.991C3.343,3.991,2,5.285,2,6.875v12.147
			c0,1.59,1.343,2.884,2.994,2.884h22.012c1.651,0,2.994-1.293,2.994-2.884V6.875c0-1.563-1.371-2.884-2.994-2.884H4.994z"/>
	</g>
	<g>
		<path fill="#313144" d="M15.871,29.981c-0.553,0-1-0.448-1-1v-5.434c0-0.552,0.447-1,1-1s1,0.448,1,1v5.434
			C16.871,29.533,16.424,29.981,15.871,29.981z"/>
	</g>
	<g>
		<path fill="#313144" d="M16,3.908c-0.553,0-1-0.448-1-1V1c0-0.552,0.447-1,1-1s1,0.448,1,1v1.908C17,3.46,16.553,3.908,16,3.908z"
			/>
	</g>
	<g>
		<path fill="#313144" d="M21.154,32c-0.254,0-0.509-0.096-0.704-0.289l-5.283-5.234c-0.392-0.389-0.395-1.022-0.006-1.414
			c0.389-0.393,1.021-0.396,1.414-0.007l5.283,5.233c0.392,0.389,0.395,1.022,0.006,1.414C21.669,31.901,21.412,32,21.154,32z"/>
	</g>
	<g>
		<path fill="#313144" d="M10.531,32c-0.257,0-0.515-0.099-0.71-0.297c-0.389-0.392-0.386-1.025,0.007-1.414l5.283-5.233
			c0.394-0.39,1.026-0.386,1.414,0.007c0.389,0.392,0.386,1.025-0.006,1.414l-5.284,5.234C11.04,31.904,10.786,32,10.531,32z"/>
	</g>
	<g>
		<path fill="#313144" d="M7,19.056c-0.232,0-0.465-0.081-0.655-0.245c-0.417-0.362-0.462-0.994-0.1-1.411l6.158-7.099
			c0.361-0.416,0.989-0.462,1.406-0.104l5.095,4.369l5.335-6.25c0.36-0.421,0.991-0.469,1.41-0.111c0.42,0.359,0.47,0.99,0.111,1.41
			l-5.986,7.013c-0.173,0.202-0.418,0.327-0.684,0.348c-0.262,0.021-0.526-0.065-0.729-0.238l-5.1-4.375l-5.507,6.348
			C7.558,18.939,7.279,19.056,7,19.056z"/>
	</g>
</g>
</svg>
