<?xml version="1.0" encoding="utf-8"?>
<!-- Generator: Adobe Illustrator 16.0.4, SVG Export Plug-In . SVG Version: 6.00 Build 0)  -->
<!DOCTYPE svg PUBLIC "-//W3C//DTD SVG 1.1//EN" "http://www.w3.org/Graphics/SVG/1.1/DTD/svg11.dtd">
<svg version="1.1" id="Layer_1" xmlns:sketch="http://www.bohemiancoding.com/sketch/ns"
	 xmlns="http://www.w3.org/2000/svg" xmlns:xlink="http://www.w3.org/1999/xlink" x="0px" y="0px" width="32px" height="60px"
	 viewBox="0 0 32 60" enable-background="new 0 0 32 60" xml:space="preserve">
<title>icon-3</title>
<desc>Created with Sketch.</desc>
<path id="Shape_1_" sketch:type="MSShapeGroup" fill="#FFFFFF" d="M27,60H5c-2.8,0-5-2.2-5-5V37c0-2.8,2.2-5,5-5h22c2.8,0,5,2.2,5,5
	v18C32,57.8,29.8,60,27,60L27,60z M5,58h13.8l-9.3-7.7l-6.9,6.4c0,0-0.1,0-0.1,0.1C3.1,57.5,4,58,5,58L5,58z M30,37c0-1.7-1.3-3-3-3
	H5c-1.7,0-3,1.3-3,3v17.6L8.8,48.2c0.4-0.3,0.9-0.4,1.3,0l2.3,1.899l8-7.899c0.399-0.4,1-0.4,1.399,0L30,50V37L30,37z M30,52.7
	l-8.8-8.4L14,51.4l7.9,6.6H27c1.7,0,3-1.3,3-3V52.7L30,52.7z M11,46c-2.8,0-5-2.2-5-5s2.2-5,5-5s5,2.2,5,5S13.8,46,11,46L11,46z
	 M11,38c-1.7,0-3,1.3-3,3s1.3,3,3,3s3-1.3,3-3S12.7,38,11,38L11,38z"/>
<g>
	<g>
		<path fill="#313144" d="M27,32H5c-0.552,0-1-0.447-1-1s0.448-1,1-1h22c1.654,0,3-1.346,3-3c0-0.553,0.447-1,1-1s1,0.447,1,1
			C32,29.757,29.757,32,27,32z"/>
	</g>
	<g>
		<path fill="#313144" d="M32,27h-2V3c0-0.551-0.449-1-1-1H11c-0.551,0-1,0.449-1,1v24H8V3c0-1.654,1.346-3,3-3h18
			c1.654,0,3,1.346,3,3V27z"/>
	</g>
	<g>
		<path fill="#313144" d="M5,32c-2.757,0-5-2.243-5-5c0-0.553,0.448-1,1-1s1,0.447,1,1c0,1.654,1.346,3,3,3s3-1.346,3-3
			c0-0.553,0.448-1,1-1s1,0.447,1,1C10,29.757,7.757,32,5,32z"/>
	</g>
	<g>
		<path fill="#313144" d="M2,27H0V13c0-1.654,1.346-3,3-3h6.5v2H3c-0.551,0-1,0.449-1,1V27z"/>
	</g>
	<g>
		<path fill="#313144" d="M27,15H13c-0.552,0-1-0.448-1-1s0.448-1,1-1h14c0.553,0,1,0.448,1,1S27.553,15,27,15z"/>
	</g>
	<g>
		<path fill="#313144" d="M20,11h-7c-0.552,0-1-0.448-1-1s0.448-1,1-1h7c0.553,0,1,0.448,1,1S20.553,11,20,11z"/>
	</g>
	<g>
		<path fill="#313144" d="M27,19H13c-0.552,0-1-0.447-1-1c0-0.552,0.448-1,1-1h14c0.553,0,1,0.448,1,1C28,18.553,27.553,19,27,19z"
			/>
	</g>
	<g>
		<path fill="#313144" d="M27,23H13c-0.552,0-1-0.447-1-1s0.448-1,1-1h14c0.553,0,1,0.447,1,1S27.553,23,27,23z"/>
	</g>
</g>
</svg>
